<svg width="80" height="80" viewBox="0 0 80 80" fill="none" xmlns="http://www.w3.org/2000/svg">
<rect x="0" y="0" width="80" height="80" rx="18" fill="#F2F2F7"/>
<path d="M39.8183 79.1504C61.5957 79.1504 79.2715 61.5234 79.2715 39.7461C79.2715 17.9688 61.5957 0.341797 39.8183 0.341797C18.0898 0.341797 0.414062 17.9688 0.414062 39.7461C0.414062 61.5234 18.0898 79.1504 39.8183 79.1504ZM39.8183 71.7285C22.1426 71.7285 7.88472 57.4219 7.88472 39.7461C7.88472 22.0703 22.1426 7.7637 39.8183 7.7637C57.4941 7.7637 71.8008 22.0703 71.8008 39.7461C71.8008 57.4219 57.4941 71.7285 39.8183 71.7285Z" fill="black"/>
<path d="M39.817 46.2397C43.4303 46.2397 46.3112 43.3589 46.3112 39.7456C46.3112 37.5972 45.2858 35.644 43.5768 34.4722L24.485 21.0444C22.4342 19.5796 20.2858 21.728 21.653 23.8276L34.1041 42.8706C35.4225 44.8725 37.4245 46.2397 39.817 46.2397Z" fill="black"/>
</svg>
